<?xml version="1.0"?>
<svg width="250mm" height="200mm" viewBox="0 0   2500    1500"
     xmlns="http://www.w3.org/2000/svg"
     xmlns:xlink="http://www.w3.org/1999/xlink"
     xmlns:ev="http://www.w3.org/2001/xml-events">
<g font-family="Verdana" font-size="8" >
  <line x1="   300" y1="  1070" x2="   300" y2="  1150" style = "stroke:silver  ;"/>
  <line x1="   300" y1="  1070" x2="   300" y2="  1230" style = "stroke:silver  ;"/>
  <line x1="   300" y1="  1070" x2="   300" y2="  1310" style = "stroke:silver  ;"/>
  <line x1="   300" y1="  1150" x2="   300" y2="  1230" style = "stroke:silver  ;"/>
  <line x1="   300" y1="  1150" x2="   300" y2="  1310" style = "stroke:silver  ;"/>
  <line x1="   300" y1="  1230" x2="   300" y2="  1310" style = "stroke:silver  ;"/>
  <line x1="  1800" y1="   990" x2="   800" y2="    30" style = "stroke:silver  ;"/>
  <rect x="   200" y="  1060" width="   200" height="    20" style = "fill:snow; stroke: Black;"/>     1
  <text x="   202" y="  1073">OutdoorAir:NodeList</text>
  <rect x="   200" y="  1140" width="   200" height="    20" style = "fill:snow; stroke: Black;"/>     2
  <text x="   202" y="  1153">OutdoorAir:NodeList</text>
  <rect x="   200" y="  1220" width="   200" height="    20" style = "fill:snow; stroke: Black;"/>     3
  <text x="   202" y="  1233">OutdoorAir:NodeList</text>
  <rect x="   200" y="  1300" width="   200" height="    20" style = "fill:snow; stroke: Black;"/>     4
  <text x="   202" y="  1313">OutdoorAir:NodeList</text>
  <rect x="  1700" y="   740" width="   200" height="    20" style = "fill:chartreuse; stroke: Black;"/>    16
  <text x="  1702" y="   753">L1S1-CHECKOUT THERMAL ZONE</text>
  <rect x="  1250" y="   260" width="   200" height="    20" style = "fill:wheat; stroke: Black;"/>    42
  <text x="  1252" y="   273">AIR LOOP HVAC ZONE SPLITTER 3</text>
  <rect x="  1400" y="   620" width="   200" height="    20" style = "fill:wheat; stroke: Black;"/>    43
  <text x="  1402" y="   633">AIR LOOP HVAC ZONE SPLITTER 2</text>
  <rect x="  1400" y="   860" width="   200" height="    20" style = "fill:wheat; stroke: Black;"/>    44
  <text x="  1402" y="   873">AIR LOOP HVAC ZONE SPLITTER 1</text>
  <rect x="   200" y="    20" width="   200" height="    20" style = "fill:silver; stroke: Black;"/>    45
  <text x="   202" y="    33">CV UNIT HEATER FAN</text>
  <rect x="   950" y="   180" width="   200" height="    20" style = "fill:silver; stroke: Black;"/>    46
  <text x="   952" y="   193">PTHP CV FAN</text>
  <rect x="   200" y="   100" width="   200" height="    20" style = "fill:silver; stroke: Black;"/>    47
  <text x="   202" y="   113">CV UNIT HEATER FAN 1</text>
  <rect x="   900" y="   260" width="   200" height="    20" style = "fill:silver; stroke: Black;"/>    48
  <text x="   902" y="   273">OFFICE/BOH SUPPLY FAN</text>
  <rect x="  1100" y="   620" width="   200" height="    20" style = "fill:silver; stroke: Black;"/>    49
  <text x="  1102" y="   633">PACU EAST FAN CONSTANT VOLUME</text>
  <rect x="  1100" y="   860" width="   200" height="    20" style = "fill:silver; stroke: Black;"/>    50
  <text x="  1102" y="   873">PACU WEST FAN CONSTANT VOLUME</text>
  <rect x="  1200" y="   180" width="   200" height="    20" style = "fill:salmon; stroke: Black;"/>    60
  <text x="  1202" y="   193">PTHP ELEC HTG BACKUP COIL</text>
  <rect x="   450" y="    20" width="   200" height="    20" style = "fill:salmon; stroke: Black;"/>    61
  <text x="   452" y="    33">UNIT HEATER GAS HTG COIL</text>
  <rect x="   450" y="   100" width="   200" height="    20" style = "fill:salmon; stroke: Black;"/>    62
  <text x="   452" y="   113">UNIT HEATER GAS HTG COIL 1</text>
  <rect x="   550" y="   260" width="   200" height="    20" style = "fill:salmon; stroke: Black;"/>    63
  <text x="   552" y="   273">COIL HEATING GAS 3</text>
  <rect x="   800" y="   620" width="   200" height="    20" style = "fill:salmon; stroke: Black;"/>    64
  <text x="   802" y="   633">PACU EAST COIL HEATING GAS</text>
  <rect x="   800" y="   860" width="   200" height="    20" style = "fill:salmon; stroke: Black;"/>    65
  <text x="   802" y="   873">PACU WEST COIL HEATING GAS</text>
  <rect x="   200" y="   180" width="   200" height="    20" style = "fill:lawngreen; stroke: Black;"/>    66
  <text x="   202" y="   193">M-152 MDF ROOM DAC OA MIXER</text>
  <rect x="   200" y="   260" width="   200" height="    20" style = "fill:lawngreen; stroke: Black;"/>    67
  <text  x="   202" y="   268">AIR LOOP HVAC OUTDOOR AIR SYSTEM 3
  <tspan x="   202" y="   276">OUTDOOR AIR MIXER</tspan></text>
  <rect x="   200" y="   620" width="   200" height="    20" style = "fill:lawngreen; stroke: Black;"/>    68
  <text  x="   202" y="   628">AIR LOOP HVAC OUTDOOR AIR SYSTEM 2
  <tspan x="   202" y="   636">OUTDOOR AIR MIXER</tspan></text>
  <rect x="   200" y="   860" width="   200" height="    20" style = "fill:lawngreen; stroke: Black;"/>    69
  <text  x="   202" y="   868">AIR LOOP HVAC OUTDOOR AIR SYSTEM 1
  <tspan x="   202" y="   876">OUTDOOR AIR MIXER</tspan></text>
  <rect x="   450" y="   180" width="   200" height="    20" style = "fill:skyblue; stroke: Black;"/>    70
  <text x="   452" y="   193">PTHP 1 SPD DX CLG COIL</text>
  <rect x="   500" y="   620" width="   200" height="    20" style = "fill:skyblue; stroke: Black;"/>    71
  <text x="   502" y="   633">PACU WEST 1 SPD DX CLG COIL</text>
  <rect x="   500" y="   860" width="   200" height="    20" style = "fill:skyblue; stroke: Black;"/>    72
  <text x="   502" y="   873">PACU EAST 1 SPD DX CLG COIL</text>
  <rect x="   700" y="   180" width="   200" height="    20" style = "fill:salmon; stroke: Black;"/>    73
  <text x="   702" y="   193">PTHP 1 SPD DX HTG COIL</text>
  <rect x="  1950" y="   540" width="   200" height="    20" style = "fill:wheat; stroke: Black;"/>    74
  <text x="  1952" y="   553">AIR LOOP HVAC ZONE MIXER 3</text>
  <rect x="  2000" y="   780" width="   200" height="    20" style = "fill:wheat; stroke: Black;"/>    75
  <text x="  2002" y="   793">AIR LOOP HVAC ZONE MIXER 2</text>
  <rect x="  2000" y="   980" width="   200" height="    20" style = "fill:wheat; stroke: Black;"/>    76
  <text x="  2002" y="   993">AIR LOOP HVAC ZONE MIXER 1</text>
  <rect x="  1700" y="   980" width="   200" height="    20" style = "fill:chartreuse; stroke: Black;"/>    80
  <text x="  1702" y="   993">L1S1-LOADING THERMAL ZONE</text>
  <rect x="  1700" y="   620" width="   200" height="    20" style = "fill:chartreuse; stroke: Black;"/>    81
  <text x="  1702" y="   633">L1S1-PREPAREDFOODS THERMAL ZONE</text>
  <rect x="  1700" y="   660" width="   200" height="    20" style = "fill:chartreuse; stroke: Black;"/>    82
  <text x="  1702" y="   673">L1S1-PREPAREDFOODSPREP THERMAL ZONE</text>
  <rect x="  1700" y="   860" width="   200" height="    20" style = "fill:chartreuse; stroke: Black;"/>    83
  <text x="  1702" y="   873">L1S1-PRODUCE THERMAL ZONE</text>
  <rect x="  1700" y="   900" width="   200" height="    20" style = "fill:chartreuse; stroke: Black;"/>    84
  <text x="  1702" y="   913">L1S1-SALESAISLE1 THERMAL ZONE</text>
  <rect x="  1700" y="   940" width="   200" height="    20" style = "fill:chartreuse; stroke: Black;"/>    85
  <text x="  1702" y="   953">L1S1-SALESNORTH THERMAL ZONE</text>
  <rect x="  1700" y="   780" width="   200" height="    20" style = "fill:chartreuse; stroke: Black;"/>    86
  <text x="  1702" y="   793">L1S1-SALESSOUTH THERMAL ZONE</text>
  <rect x="  1700" y="   700" width="   200" height="    20" style = "fill:chartreuse; stroke: Black;"/>    87
  <text x="  1702" y="   713">L1S1-SPECIALTYSERVICE THERMAL ZONE</text>
  <rect x="  1600" y="   540" width="   200" height="    20" style = "fill:chartreuse; stroke: Black;"/>    88
  <text x="  1602" y="   553">M-153-CASHROOM THERMAL ZONE</text>
  <rect x="  1600" y="   500" width="   200" height="    20" style = "fill:chartreuse; stroke: Black;"/>    89
  <text x="  1602" y="   513">M-154-EXGOFFICE THERMAL ZONE</text>
  <rect x="  1600" y="   460" width="   200" height="    20" style = "fill:chartreuse; stroke: Black;"/>    90
  <text x="  1602" y="   473">M-155-EXGOFFICE THERMAL ZONE</text>
  <rect x="  1600" y="   420" width="   200" height="    20" style = "fill:chartreuse; stroke: Black;"/>    91
  <text x="  1602" y="   433">M-156-STLOFFICE THERMAL ZONE</text>
  <rect x="  1600" y="   380" width="   200" height="    20" style = "fill:chartreuse; stroke: Black;"/>    92
  <text x="  1602" y="   393">M-157-EXGOFFICE THERMAL ZONE</text>
  <rect x="  1600" y="   340" width="   200" height="    20" style = "fill:chartreuse; stroke: Black;"/>    93
  <text x="  1602" y="   353">M-158-BREAKROOM THERMAL ZONE</text>
  <rect x="  1600" y="   300" width="   200" height="    20" style = "fill:chartreuse; stroke: Black;"/>    94
  <text x="  1602" y="   313">M-162-PREPROOM THERMAL ZONE</text>
  <rect x="  1600" y="   260" width="   200" height="    20" style = "fill:chartreuse; stroke: Black;"/>    95
  <text x="  1602" y="   273">M-163-MEATPREP THERMAL ZONE</text>
  <rect x="   700" y="    20" width="   200" height="    20" style = "fill:chartreuse; stroke: Black;"/>    96
  <text x="   702" y="    33">L1S1-LOADING THERMAL ZONE</text>
  <rect x="  1450" y="   180" width="   200" height="    20" style = "fill:chartreuse; stroke: Black;"/>    97
  <text x="  1452" y="   193">M-152-MDF THERMAL ZONE</text>
  <rect x="   700" y="   100" width="   200" height="    20" style = "fill:chartreuse; stroke: Black;"/>    98
  <text x="   702" y="   113">M-201-EXGSTORAGE THERMAL ZONE</text>
  <line x1="  1450" y1="   270" x2="  1600" y2="   270" style = "stroke: Black;"/>
  <line x1="  1450" y1="   270" x2="  1600" y2="   310" style = "stroke: Black;"/>
  <line x1="  1450" y1="   270" x2="  1600" y2="   350" style = "stroke: Black;"/>
  <line x1="  1450" y1="   270" x2="  1600" y2="   390" style = "stroke: Black;"/>
  <line x1="  1450" y1="   270" x2="  1600" y2="   430" style = "stroke: Black;"/>
  <line x1="  1450" y1="   270" x2="  1600" y2="   470" style = "stroke: Black;"/>
  <line x1="  1450" y1="   270" x2="  1600" y2="   510" style = "stroke: Black;"/>
  <line x1="  1450" y1="   270" x2="  1600" y2="   550" style = "stroke: Black;"/>
  <line x1="  1600" y1="   630" x2="  1700" y2="   630" style = "stroke: Black;"/>
  <line x1="  1600" y1="   630" x2="  1700" y2="   670" style = "stroke: Black;"/>
  <line x1="  1600" y1="   630" x2="  1700" y2="   710" style = "stroke: Black;"/>
  <line x1="  1600" y1="   630" x2="  1700" y2="   750" style = "stroke: Black;"/>
  <line x1="  1600" y1="   630" x2="  1700" y2="   790" style = "stroke: Black;"/>
  <line x1="  1600" y1="   870" x2="  1700" y2="   870" style = "stroke: Black;"/>
  <line x1="  1600" y1="   870" x2="  1700" y2="   910" style = "stroke: Black;"/>
  <line x1="  1600" y1="   870" x2="  1700" y2="   950" style = "stroke: Black;"/>
  <line x1="  1600" y1="   870" x2="  1700" y2="   990" style = "stroke: Black;"/>
  <line x1="   400" y1="    30" x2="   450" y2="    30" style = "stroke: Black;"/>
  <line x1="  1150" y1="   190" x2="  1200" y2="   190" style = "stroke: Black;"/>
  <line x1="   400" y1="   110" x2="   450" y2="   110" style = "stroke: Black;"/>
  <line x1="  1100" y1="   270" x2="  1250" y2="   270" style = "stroke: Black;"/>
  <line x1="  1300" y1="   630" x2="  1400" y2="   630" style = "stroke: Black;"/>
  <line x1="  1300" y1="   870" x2="  1400" y2="   870" style = "stroke: Black;"/>
  <line x1="  1400" y1="   190" x2="  1450" y2="   190" style = "stroke: Black;"/>
  <line x1="   650" y1="    30" x2="   700" y2="    30" style = "stroke: Black;"/>
  <line x1="   650" y1="   110" x2="   700" y2="   110" style = "stroke: Black;"/>
  <line x1="   750" y1="   270" x2="   900" y2="   270" style = "stroke: Black;"/>
  <line x1="  1000" y1="   630" x2="  1100" y2="   630" style = "stroke: Black;"/>
  <line x1="  1000" y1="   870" x2="  1100" y2="   870" style = "stroke: Black;"/>
  <line x1="   400" y1="   190" x2="   450" y2="   190" style = "stroke: Black;"/>
  <line x1="   400" y1="   270" x2="   550" y2="   270" style = "stroke: Black;"/>
  <line x1="   400" y1="   630" x2="   500" y2="   630" style = "stroke: Black;"/>
  <line x1="   400" y1="   870" x2="   500" y2="   870" style = "stroke: Black;"/>
  <line x1="   650" y1="   190" x2="   700" y2="   190" style = "stroke: Black;"/>
  <line x1="   700" y1="   630" x2="   800" y2="   630" style = "stroke: Black;"/>
  <line x1="   700" y1="   870" x2="   800" y2="   870" style = "stroke: Black;"/>
  <line x1="   900" y1="   190" x2="   950" y2="   190" style = "stroke: Black;"/>
  <line x1="  1900" y1="   750" x2="  2000" y2="   790" style = "stroke: Black;"/>
  <line x1="  1900" y1="   990" x2="  2000" y2="   990" style = "stroke: Black;"/>
  <line x1="  1900" y1="   630" x2="  2000" y2="   790" style = "stroke: Black;"/>
  <line x1="  1900" y1="   670" x2="  2000" y2="   790" style = "stroke: Black;"/>
  <line x1="  1900" y1="   870" x2="  2000" y2="   990" style = "stroke: Black;"/>
  <line x1="  1900" y1="   910" x2="  2000" y2="   990" style = "stroke: Black;"/>
  <line x1="  1900" y1="   950" x2="  2000" y2="   990" style = "stroke: Black;"/>
  <line x1="  1900" y1="   790" x2="  2000" y2="   790" style = "stroke: Black;"/>
  <line x1="  1900" y1="   710" x2="  2000" y2="   790" style = "stroke: Black;"/>
  <line x1="  1800" y1="   550" x2="  1950" y2="   550" style = "stroke: Black;"/>
  <line x1="  1800" y1="   510" x2="  1950" y2="   550" style = "stroke: Black;"/>
  <line x1="  1800" y1="   470" x2="  1950" y2="   550" style = "stroke: Black;"/>
  <line x1="  1800" y1="   430" x2="  1950" y2="   550" style = "stroke: Black;"/>
  <line x1="  1800" y1="   390" x2="  1950" y2="   550" style = "stroke: Black;"/>
  <line x1="  1800" y1="   350" x2="  1950" y2="   550" style = "stroke: Black;"/>
  <line x1="  1800" y1="   310" x2="  1950" y2="   550" style = "stroke: Black;"/>
  <line x1="  1800" y1="   270" x2="  1950" y2="   550" style = "stroke: Black;"/>
  <line x1="   200" y1="    30" x2="   175" y2="    30" style = "stroke: Black;"/>
  <line x1="   175" y1="    30" x2="   175" y2="     0" style = "stroke: Black;"/>
  <line x1="   175" y1="     0" x2="   925" y2="     0" style = "stroke: Black;"/>
  <line x1="   925" y1="     0" x2="   925" y2="    30" style = "stroke: Black;"/>
  <line x1="   925" y1="    30" x2="   900" y2="    30" style = "stroke: Black;"/>
  <line x1="   200" y1="   110" x2="   175" y2="   110" style = "stroke: Black;"/>
  <line x1="   175" y1="   110" x2="   175" y2="    80" style = "stroke: Black;"/>
  <line x1="   175" y1="    80" x2="   925" y2="    80" style = "stroke: Black;"/>
  <line x1="   925" y1="    80" x2="   925" y2="   110" style = "stroke: Black;"/>
  <line x1="   925" y1="   110" x2="   900" y2="   110" style = "stroke: Black;"/>
  <line x1="   200" y1="   190" x2="   175" y2="   190" style = "stroke: Black;"/>
  <line x1="   175" y1="   190" x2="   175" y2="   160" style = "stroke: Black;"/>
  <line x1="   175" y1="   160" x2="  1675" y2="   160" style = "stroke: Black;"/>
  <line x1="  1675" y1="   160" x2="  1675" y2="   190" style = "stroke: Black;"/>
  <line x1="  1675" y1="   190" x2="  1650" y2="   190" style = "stroke: Black;"/>
  <line x1="   200" y1="   270" x2="   175" y2="   270" style = "stroke: Black;"/>
  <line x1="   175" y1="   270" x2="   175" y2="   240" style = "stroke: Black;"/>
  <line x1="   175" y1="   240" x2="  2175" y2="   240" style = "stroke: Black;"/>
  <line x1="  2175" y1="   240" x2="  2175" y2="   550" style = "stroke: Black;"/>
  <line x1="  2175" y1="   550" x2="  2150" y2="   550" style = "stroke: Black;"/>
  <line x1="   200" y1="   630" x2="   175" y2="   630" style = "stroke: Black;"/>
  <line x1="   175" y1="   630" x2="   175" y2="   600" style = "stroke: Black;"/>
  <line x1="   175" y1="   600" x2="  2225" y2="   600" style = "stroke: Black;"/>
  <line x1="  2225" y1="   600" x2="  2225" y2="   790" style = "stroke: Black;"/>
  <line x1="  2225" y1="   790" x2="  2200" y2="   790" style = "stroke: Black;"/>
  <line x1="   200" y1="   870" x2="   175" y2="   870" style = "stroke: Black;"/>
  <line x1="   175" y1="   870" x2="   175" y2="   840" style = "stroke: Black;"/>
  <line x1="   175" y1="   840" x2="  2225" y2="   840" style = "stroke: Black;"/>
  <line x1="  2225" y1="   840" x2="  2225" y2="   990" style = "stroke: Black;"/>
  <line x1="  2225" y1="   990" x2="  2200" y2="   990" style = "stroke: Black;"/>
  <text x="   200" y="  1360">Unused Non-Parent Objects:</text>
  <text x="   220" y="  1380">SETPOINT MANAGER SINGLE ZONE REHEAT 3</text>
  <text x="   220" y="  1400">SETPOINT MANAGER SINGLE ZONE REHEAT 2</text>
  <text x="   220" y="  1420">SETPOINT MANAGER SINGLE ZONE REHEAT 1</text>
  <text x="   220" y="  1440">BOH PRE-FURNACE NODE OS DEFAULT SPM</text>
  <text x="   220" y="  1460">BOH PRE-FAN NODE OS DEFAULT SPM</text>
  <text x="   220" y="  1480">PACU EAST PRE-COIL NODE OS DEFAULT SPM</text>
  <text x="   220" y="  1500">PACU EAST PREHEAT NODE OS DEFAULT SPM</text>
  <text x="   220" y="  1520">PACU EAST PRE-FAN NODE OS DEFAULT SPM</text>
  <text x="   220" y="  1540">PACU WEST PRE COIL NODE OS DEFAULT SPM</text>
  <text x="   220" y="  1560">PACU PRE-HEAT NODE OS DEFAULT SPM</text>
  <text x="   220" y="  1580">PACU WEST PRE-FAN NODE OS DEFAULT SPM</text>
  <text x="   220" y="  1600">L1S1-COFFEE THERMAL ZONE</text>
  <text x="   220" y="  1620">L1S1-MEN THERMAL ZONE</text>
  <text x="   220" y="  1640">L1S1-SEAFOODSURFACE THERMAL ZONE</text>
  <text x="   220" y="  1660">L1S1-WOMEN THERMAL ZONE</text>
  <text x="   220" y="  1680">M-151-STAIRS1 THERMAL ZONE</text>
  <text x="   220" y="  1700">M-161-MEN THERMAL ZONE</text>
  <text x="   220" y="  1720">M-EXGWOMEN THERMAL ZONE</text>
  <text x="   220" y="  1740">L1S1 COFFEE EXHAUST FAN</text>
  <text x="   220" y="  1760">L1S1 LOADING  EXHAUST FAN</text>
  <text x="   220" y="  1780">L1S1 MENS EXHAUST FAN</text>
  <text x="   220" y="  1800">L1S1 PREPARED FOODS PREP EXHAUST FAN</text>
  <text x="   220" y="  1820">L1S1 SEAFOOD SURFACE EXHAUST FAN</text>
  <text x="   220" y="  1840">L1S1 WOMEN EXHAUST FAN</text>
  <text x="   220" y="  1860">M-151 STAIRS EXHAUST FAN</text>
  <text x="   220" y="  1880">M 161 MEN EXHAUST FAN</text>
  <text x="   220" y="  1900">M-EXGWOMEN EXHAUST FAN</text>
  <text x="   220" y="  1920">CONTROLLER OUTDOOR AIR 3</text>
  <text x="   220" y="  1940">CONTROLLER OUTDOOR AIR 2</text>
  <text x="   220" y="  1960">CONTROLLER OUTDOOR AIR 1</text>
  <text x="   200" y="  2000">
The following are not supported: objects related to controls, AirTerminal:SingleDuct:Uncontrolled, or ZoneHVAC:IdealLoadsAirSystem</text>
</g>
</svg>
